<mxfile host="app.diagrams.net" modified="2021-11-08T14:34:42.013Z" agent="5.0 (Windows NT 10.0; Win64; x64) AppleWebKit/537.36 (KHTML, like Gecko) Chrome/95.0.4638.69 Safari/537.36 Edg/95.0.1020.44" etag="UUer-BtUi_Kv3iGWTdDE" version="15.7.0" type="github">
  <diagram id="VvI6xnK7Ubtw1GrGe_8O" name="Page-1">
    <mxGraphModel dx="1422" dy="754" grid="1" gridSize="10" guides="1" tooltips="1" connect="1" arrows="1" fold="1" page="1" pageScale="1" pageWidth="850" pageHeight="1100" math="0" shadow="0">
      <root>
        <mxCell id="0" />
        <mxCell id="1" parent="0" />
        <mxCell id="kxR7DaWLTM8WRQEH6DTp-3" style="edgeStyle=orthogonalEdgeStyle;rounded=0;orthogonalLoop=1;jettySize=auto;html=1;" edge="1" parent="1" source="kxR7DaWLTM8WRQEH6DTp-1" target="kxR7DaWLTM8WRQEH6DTp-2">
          <mxGeometry relative="1" as="geometry" />
        </mxCell>
        <mxCell id="kxR7DaWLTM8WRQEH6DTp-1" value="Business User" style="sketch=0;outlineConnect=0;fontColor=#232F3E;gradientColor=none;fillColor=#232F3E;strokeColor=none;dashed=0;verticalLabelPosition=bottom;verticalAlign=top;align=center;html=1;fontSize=12;fontStyle=0;aspect=fixed;pointerEvents=1;shape=mxgraph.aws4.users;" vertex="1" parent="1">
          <mxGeometry x="110" y="260" width="78" height="78" as="geometry" />
        </mxCell>
        <mxCell id="kxR7DaWLTM8WRQEH6DTp-7" style="edgeStyle=orthogonalEdgeStyle;rounded=0;orthogonalLoop=1;jettySize=auto;html=1;" edge="1" parent="1" source="kxR7DaWLTM8WRQEH6DTp-2" target="kxR7DaWLTM8WRQEH6DTp-5">
          <mxGeometry relative="1" as="geometry" />
        </mxCell>
        <mxCell id="kxR7DaWLTM8WRQEH6DTp-2" value="Billing.tsx" style="shape=image;html=1;verticalAlign=top;verticalLabelPosition=bottom;labelBackgroundColor=#ffffff;imageAspect=0;aspect=fixed;image=https://cdn4.iconfinder.com/data/icons/logos-3/600/React.js_logo-128.png" vertex="1" parent="1">
          <mxGeometry x="310" y="235" width="128" height="128" as="geometry" />
        </mxCell>
        <mxCell id="kxR7DaWLTM8WRQEH6DTp-8" style="edgeStyle=orthogonalEdgeStyle;rounded=0;orthogonalLoop=1;jettySize=auto;html=1;" edge="1" parent="1" source="kxR7DaWLTM8WRQEH6DTp-5" target="kxR7DaWLTM8WRQEH6DTp-6">
          <mxGeometry relative="1" as="geometry" />
        </mxCell>
        <mxCell id="kxR7DaWLTM8WRQEH6DTp-5" value="/billing/revenue" style="sketch=0;outlineConnect=0;fontColor=#232F3E;gradientColor=none;fillColor=#FF4F8B;strokeColor=none;dashed=0;verticalLabelPosition=bottom;verticalAlign=top;align=center;html=1;fontSize=12;fontStyle=0;aspect=fixed;pointerEvents=1;shape=mxgraph.aws4.endpoint;" vertex="1" parent="1">
          <mxGeometry x="560" y="259" width="80" height="80" as="geometry" />
        </mxCell>
        <mxCell id="kxR7DaWLTM8WRQEH6DTp-6" value="get_revenues" style="sketch=0;outlineConnect=0;fontColor=#232F3E;gradientColor=none;fillColor=#FF9900;strokeColor=none;dashed=0;verticalLabelPosition=bottom;verticalAlign=top;align=center;html=1;fontSize=12;fontStyle=0;aspect=fixed;pointerEvents=1;shape=mxgraph.aws4.lambda_function;" vertex="1" parent="1">
          <mxGeometry x="764" y="256" width="85" height="85" as="geometry" />
        </mxCell>
        <mxCell id="kxR7DaWLTM8WRQEH6DTp-9" value="" style="shape=image;html=1;verticalAlign=top;verticalLabelPosition=bottom;labelBackgroundColor=#ffffff;imageAspect=0;aspect=fixed;image=https://cdn2.iconfinder.com/data/icons/integers/60/number-one-128.png" vertex="1" parent="1">
          <mxGeometry x="230" y="240" width="40" height="40" as="geometry" />
        </mxCell>
        <mxCell id="kxR7DaWLTM8WRQEH6DTp-10" value="" style="shape=image;html=1;verticalAlign=top;verticalLabelPosition=bottom;labelBackgroundColor=#ffffff;imageAspect=0;aspect=fixed;image=https://cdn2.iconfinder.com/data/icons/integers/60/number-two-128.png" vertex="1" parent="1">
          <mxGeometry x="480" y="240" width="40" height="40" as="geometry" />
        </mxCell>
        <mxCell id="kxR7DaWLTM8WRQEH6DTp-11" value="" style="shape=image;html=1;verticalAlign=top;verticalLabelPosition=bottom;labelBackgroundColor=#ffffff;imageAspect=0;aspect=fixed;image=https://cdn2.iconfinder.com/data/icons/integers/60/number-three-128.png" vertex="1" parent="1">
          <mxGeometry x="680" y="240" width="40" height="40" as="geometry" />
        </mxCell>
      </root>
    </mxGraphModel>
  </diagram>
</mxfile>
